<svg width="72" height="69" viewBox="0 0 72 69" fill="none" xmlns="http://www.w3.org/2000/svg">
<path d="M0.499997 34.5C0.499995 15.7422 16.3736 0.500005 36 0.500003C55.6264 0.500001 71.5 15.7422 71.5 34.5C71.5 53.2578 55.6264 68.5 36 68.5C16.3736 68.5 0.499999 53.2578 0.499997 34.5Z" fill="white" stroke="#BCBCBC"/>
<path d="M47.7071 35.7071C48.0976 35.3166 48.0976 34.6834 47.7071 34.2929L41.3431 27.9289C40.9526 27.5384 40.3195 27.5384 39.9289 27.9289C39.5384 28.3195 39.5384 28.9526 39.9289 29.3431L45.5858 35L39.9289 40.6569C39.5384 41.0474 39.5384 41.6805 39.9289 42.0711C40.3195 42.4616 40.9526 42.4616 41.3431 42.0711L47.7071 35.7071ZM24 36L47 36L47 34L24 34L24 36Z" fill="#A5A5A5"/>
</svg>
